<?xml version="1.0" standalone="no"?>
<!DOCTYPE svg PUBLIC "-//W3C//DTD SVG 20010904//EN"
 "http://www.w3.org/TR/2001/REC-SVG-20010904/DTD/svg10.dtd">
<svg version="1.0" xmlns="http://www.w3.org/2000/svg"
 width="1024.000000pt" height="1024.000000pt" viewBox="0 0 1024.000000 1024.000000"
 preserveAspectRatio="xMidYMid meet">
<metadata>
Created by potrace 1.14, written by Peter Selinger 2001-2017
</metadata>
<g transform="translate(0.000000,1024.000000) scale(0.100000,-0.100000)"
fill="#000000" stroke="none">
<path d="M1210 8913 c-59 -21 -132 -97 -153 -160 -24 -71 -20 -700 4 -754 25
-54 74 -104 127 -130 46 -22 56 -23 348 -25 166 -1 306 -4 311 -7 5 -3 9
-1119 8 -2719 l0 -2713 -281 -1 c-155 -1 -298 -4 -320 -8 -88 -17 -162 -79
-194 -165 -19 -48 -20 -74 -18 -389 3 -333 3 -338 27 -382 20 -39 91 -113 109
-116 4 0 21 -7 37 -15 25 -11 259 -14 1443 -15 1041 -1 1423 2 1450 10 87 27
138 71 173 151 22 48 23 60 23 375 0 377 -4 398 -81 475 -72 72 -105 78 -441
78 -156 0 -285 4 -288 8 -6 10 -6 2148 1 2158 6 10 3244 11 3250 1 4 -6 7
-1017 5 -1901 l0 -266 -293 0 c-338 0 -367 -5 -437 -76 -82 -81 -86 -106 -85
-497 2 -292 3 -307 24 -356 30 -70 83 -118 155 -142 57 -19 92 -20 1470 -18
l1411 1 58 29 c66 32 119 95 136 162 6 24 10 172 10 355 0 277 -2 320 -18 367
-30 86 -105 151 -196 168 -21 4 -165 7 -319 8 l-281 1 0 2713 c0 1556 3 2716
8 2719 5 3 145 6 311 7 294 1 302 2 348 24 27 13 64 42 83 65 62 73 67 105 63
474 -3 327 -3 328 -28 377 -14 27 -43 64 -66 82 -83 69 23 64 -1553 62 l-1426
-3 -40 -22 c-61 -33 -112 -90 -131 -147 -15 -43 -18 -96 -19 -351 0 -165 3
-319 7 -343 16 -90 68 -159 148 -196 42 -19 64 -21 348 -22 166 0 304 -3 307
-5 5 -5 7 -428 6 -1459 l-1 -715 -1630 0 c-1443 0 -1630 2 -1630 15 0 148 0
2114 0 2135 l0 30 297 -1 c351 -1 371 3 446 86 68 76 72 97 71 465 l0 320 -26
56 c-31 67 -76 111 -141 138 -48 20 -65 21 -1465 20 -1263 -1 -1422 -2 -1462
-16z"/>
</g>
</svg>
